<?xml version="1.0" encoding="iso-8859-1"?>
<!-- Generator: Adobe Illustrator 19.0.0, SVG Export Plug-In . SVG Version: 6.00 Build 0)  -->
<svg version="1.1" id="Capa_1" xmlns="http://www.w3.org/2000/svg" xmlns:xlink="http://www.w3.org/1999/xlink" x="0px" y="0px"
	 viewBox="0 0 422.555 422.555" style="enable-background:new 0 0 422.555 422.555;" xml:space="preserve">
<path style="fill:#FED14F;" d="M56.155,291.356h155.2v52h-155.2V291.356z"/>
<g>
	<path style="fill:#FCB129;" d="M211.355,291.356h149.6v52h-149.6V291.356z"/>
	<path style="fill:#FCB129;" d="M399.355,115.356l-42.4,91.2c-2.4,4.8-7.2,6.4-11.2,4c-2.4-1.6-4-3.2-4-6.4l-28.8-120l-48.8,120
		c-1.6,4-4.8,6.4-8,5.6c-3.2,0-6.4-2.4-8-6.4l-36.8-120v206.4h156.8L399.355,115.356z"/>
</g>
<path style="fill:#FED14F;" d="M211.355,86.556l-37.6,124c-0.8,3.2-4,5.6-7.2,5.6s-6.4-1.6-8-4.8l-44.8-123.2l-28,120.8
	c-0.8,3.2-3.2,5.6-7.2,6.4c-3.2,0-6.4-1.6-8-4.8l-48-95.2l32,175.2h156.8V86.556z"/>
<g>
	<path style="fill:#63CDF8;" d="M102.553,241.568l18.667-18.667l18.667,18.667l-18.667,18.667L102.553,241.568z"/>
	<path style="fill:#63CDF8;" d="M194.492,241.732l17.536-17.536l17.536,17.536l-17.536,17.536L194.492,241.732z"/>
	<path style="fill:#63CDF8;" d="M283.602,241.33l18.102-18.102l18.102,18.102l-18.102,18.102L283.602,241.33z"/>
</g>
<path d="M416.955,67.356c-4-1.6-8,0.8-9.6,4l-60,122.4l-28-120.8c-0.8-3.2-4-5.6-7.2-6.4c-3.2,0-6.4,1.6-8,4.8l-46.4,121.6
	l-38.4-120.8c-1.6-4-5.6-6.4-10.4-5.6c-2.4,0.8-4.8,2.4-5.6,5.6l-39.2,121.6l-46.4-121.6c-1.6-3.2-4.8-5.6-8-4.8
	c-3.2,0-6.4,2.4-7.2,6.4l-27.2,120l-60-122.4c-1.6-4-6.4-6.4-10.4-4c-3.2,1.6-5.6,5.6-4.8,8.8l45.6,212v60c0,4.8,3.2,8,8,8h315.2
	c4.8,0,8-3.2,8-8v-60l45.6-212C422.555,72.156,420.955,68.956,416.955,67.356L416.955,67.356z M360.955,340.956h-299.2v-45.6h299.2
	V340.956z M362.555,279.356h-302.4l-30.4-141.6l40.8,84c1.6,3.2,4.8,4.8,8,4.8s6.4-3.2,7.2-6.4l28-117.6l44.8,118.4
	c1.6,3.2,4.8,5.6,8,4.8c3.2,0,6.4-2.4,7.2-5.6l37.6-119.2l37.6,119.2c0.8,3.2,4,5.6,7.2,5.6c3.2,0,6.4-1.6,8-4.8l45.6-118.4
	l27.2,116.8c0.8,4,5.6,7.2,9.6,5.6c2.4-0.8,4-2.4,5.6-4l40.8-84L362.555,279.356z"/>
<path d="M127.355,212.156c-3.2-3.2-8-3.2-11.2,0l-24,24c-3.2,3.2-3.2,8,0,11.2l24,24c3.2,3.2,8,3.2,11.2,0l24-24
	c3.2-3.2,3.2-8,0-11.2L127.355,212.156z M121.755,254.556l-12.8-12.8l12.8-12.8l12.8,12.8L121.755,254.556z"/>
<path d="M216.955,212.156c-3.2-3.2-8-3.2-11.2,0l-24,24c-3.2,3.2-3.2,8,0,11.2l24,24c3.2,3.2,8,3.2,11.2,0l24-24
	c3.2-3.2,3.2-8,0-11.2L216.955,212.156z M211.355,254.556l-12.8-12.8l12.8-12.8l12.8,12.8L211.355,254.556z"/>
<path d="M306.555,212.156c-3.2-3.2-8-3.2-11.2,0l-24,24c-3.2,3.2-3.2,8,0,11.2l24,24c3.2,3.2,8,3.2,11.2,0l24-24
	c3.2-3.2,3.2-8,0-11.2L306.555,212.156z M300.955,254.556l-12.8-12.8l12.8-12.8l12.8,12.8L300.955,254.556z"/>
<g>
</g>
<g>
</g>
<g>
</g>
<g>
</g>
<g>
</g>
<g>
</g>
<g>
</g>
<g>
</g>
<g>
</g>
<g>
</g>
<g>
</g>
<g>
</g>
<g>
</g>
<g>
</g>
<g>
</g>
</svg>
