<?xml version="1.0" encoding="iso-8859-1"?>
<!-- Generator: Adobe Illustrator 19.0.0, SVG Export Plug-In . SVG Version: 6.00 Build 0)  -->
<svg version="1.1" id="Capa_1" xmlns="http://www.w3.org/2000/svg" xmlns:xlink="http://www.w3.org/1999/xlink" x="0px" y="0px"
	 viewBox="0 0 446.918 446.918" style="enable-background:new 0 0 446.918 446.918;" xml:space="preserve">
<path style="fill:#FED14F;" d="M29.114,296.565l-21.6-142.4l45.6,36l70.4,53.6l50.4-106.4l42.4-90.4l15.2,3.2v151.2h-8
	c-16,0-29.6,13.6-29.6,29.6s12.8,28.8,28,28.8h9.6v37.6h-202.4L29.114,296.565z"/>
<path style="fill:#FCB129;" d="M222.714,297.365l0.8-37.6c16,0,29.6-13.6,29.6-29.6s-13.6-29.6-29.6-29.6v-165.6l97.6,207.2l0.8,0.8
	h0.8l69.6-53.6l1.6-1.6l44-32.8l-21.6,142.4L222.714,297.365z"/>
<g>
	<path style="fill:#FED14F;" d="M44.314,355.765h369.6v-59.2h-383.2L44.314,355.765z"/>
	<path style="fill:#FED14F;" d="M169.914,137.365l-89.6-68.8l-24,121.6l65.6,48.8L169.914,137.365z"/>
</g>
<g>
	<path style="fill:#FCB129;" d="M393.114,191.765l-24.8-128.8l-92.8,74.4l50.4,107.2L393.114,191.765z"/>
	<path style="fill:#FCB129;" d="M31.514,355.765h-11.2c-0.8,0-0.8,0.8-0.8,0.8v57.6c0,1.6,0.8,1.6,0.8,1.6h406.4
		c0.8,0,0.8-0.8,0.8-0.8v-56.8c0-0.8-0.8-0.8-0.8-0.8L31.514,355.765z"/>
</g>
<circle style="fill:#DF2331;" cx="223.514" cy="230.165" r="21.6"/>
<path d="M442.714,147.765c-3.2-1.6-6.4-1.6-8.8,0.8l-34.4,27.2l-22.4-115.2c-1.6-4.8-5.6-7.2-9.6-6.4c-1.6,0-2.4,0.8-3.2,1.6
	l-87.2,69.6l-46.4-98.4c-1.6-4-6.4-5.6-10.4-4c-1.6,0.8-3.2,2.4-4,4l-45.6,96.8l-87.2-68c-3.2-2.4-8.8-2.4-11.2,1.6
	c-0.8,0.8-1.6,2.4-1.6,3.2l-22.4,115.2l-35.2-27.2c-3.2-2.4-8.8-2.4-11.2,1.6c-1.6,1.6-2.4,4-1.6,6.4l29.6,191.2h-0.8
	c-9.6,0-16.8,8-16.8,16.8v43.2c0,9.6,8,16.8,16.8,16.8h388.8c9.6,0,16.8-8,16.8-16.8v-43.2c0-9.6-8-16.8-16.8-16.8h-0.8l29.6-191.2
	C447.514,153.365,445.914,150.165,442.714,147.765L442.714,147.765z M363.514,75.765l21.6,110.4l-58.4,44.8l-43.2-91.2
	L363.514,75.765z M84.314,75.765l80,62.4l-43.2,92l-58.4-44.8L84.314,75.765z M417.914,363.765
	C418.714,363.765,418.714,364.565,417.914,363.765l0.8,44c0,0.8-0.8,0.8-0.8,0.8h-388.8c-0.8,0-0.8-0.8-0.8-0.8v-43.2
	c0-0.8,0.8-0.8,0.8-0.8H417.914z M39.514,305.365h368l-6.4,41.6h-355.2L39.514,305.365z M409.914,289.365h-372.8l-18.4-116
	l29.6,23.2l70.4,53.6c0.8,0.8,1.6,0.8,3.2,1.6h0.8h0.8h1.6c2.4-0.8,4-2.4,5.6-4l50.4-107.2l42.4-91.2l92.8,197.6
	c0.8,2.4,3.2,4,5.6,4h0.8h1.6h0.8c1.6,0,2.4-0.8,4-1.6l70.4-53.6c0.8-0.8,0.8-0.8,1.6-1.6l28-20.8L409.914,289.365z"/>
<path d="M223.514,192.565c-20.8,0-37.6,16.8-37.6,37.6s16.8,37.6,37.6,37.6s37.6-16.8,37.6-37.6S244.314,192.565,223.514,192.565
	L223.514,192.565z M223.514,251.765c-12,0-21.6-9.6-21.6-21.6s9.6-21.6,21.6-21.6s21.6,9.6,21.6,21.6
	S235.514,251.765,223.514,251.765z"/>
<path style="fill:#FCB129;" d="M401.114,346.965l6.4-41.6h-184v41.6H401.114z"/>
<g>
</g>
<g>
</g>
<g>
</g>
<g>
</g>
<g>
</g>
<g>
</g>
<g>
</g>
<g>
</g>
<g>
</g>
<g>
</g>
<g>
</g>
<g>
</g>
<g>
</g>
<g>
</g>
<g>
</g>
</svg>
