<?xml version="1.0" encoding="iso-8859-1"?>
<!-- Generator: Adobe Illustrator 19.0.0, SVG Export Plug-In . SVG Version: 6.00 Build 0)  -->
<svg version="1.1" id="Capa_1" xmlns="http://www.w3.org/2000/svg" xmlns:xlink="http://www.w3.org/1999/xlink" x="0px" y="0px"
	 viewBox="0 0 456.367 456.367" style="enable-background:new 0 0 456.367 456.367;" xml:space="preserve">
<path style="fill:#63CDF8;" d="M203.187,156.332l25.003-25.003l25.003,25.003l-25.003,25.003L203.187,156.332z"/>
<path d="M452.215,208.637l-60.24-32.4c-3.894-2.088-8.743-0.624-10.831,3.27c-0.532,0.993-0.849,2.086-0.929,3.21
	c0,0.72-5.68,68.72-52.8,68.72c-2.105,0.12-4.215,0.12-6.32,0c-7.087-0.1-13.583-3.973-17.04-10.16
	c-12.48-24,12.48-80.88,23.2-100.96c1.82-3.381,0.98-7.579-2-10l-92-75.28c-2.937-2.383-7.143-2.383-10.08,0l-91.92,74.96
	c-2.98,2.421-3.82,6.619-2,10c10.72,20,35.68,77.2,23.2,100.96c-3.457,6.187-9.953,10.06-17.04,10.16
	c-52.8,6-58.88-65.44-59.12-68.32c-0.315-4.407-4.143-7.724-8.55-7.409c-1.123,0.08-2.217,0.397-3.21,0.929l-60.32,32.32
	c-3.757,2.018-5.27,6.628-3.44,10.48l49.44,104v72c0,4.418,3.582,8,8,8h339.92c4.418,0,8-3.582,8-8v-72l49.44-104
	C457.418,215.286,455.942,210.683,452.215,208.637L452.215,208.637z M390.135,387.757H66.295v-58.24h323.84V387.757z
	 M393.095,313.597H63.335l-44.8-94.4l43.36-23.36c5.76,32,26.08,76.64,75.28,71.12c12.367-0.67,23.492-7.733,29.36-18.64
	c16-30.96-10.4-90.24-20.24-110.08l81.92-66.72l81.84,66.72c-9.84,19.84-36.48,79.12-20.16,110.08
	c5.868,10.907,16.993,17.97,29.36,18.64c2.656,0.306,5.327,0.467,8,0.48c43.2,0,61.76-41.76,67.2-71.6l43.36,23.36L393.095,313.597z
	"/>
<path d="M233.895,114.317c-3.12-3.102-8.16-3.102-11.28,0l-36.32,36.32c-3.102,3.12-3.102,8.16,0,11.28l36.32,36.32
	c3.12,3.102,8.16,3.102,11.28,0l36.32-36.32c3.102-3.12,3.102-8.16,0-11.28L233.895,114.317z M228.215,181.277l-24.96-24.8
	l24.96-25.12l24.96,25.12L228.215,181.277z"/>
<path style="fill:#FCB129;" d="M228.215,329.517h161.92v58.16h-161.92L228.215,329.517z"/>
<g>
	<path style="fill:#FED14F;" d="M66.295,329.517h161.92v58.16H66.295V329.517z"/>
	<path style="fill:#FED14F;" d="M222.535,198.237l-36.32-36.32c-3.102-3.12-3.102-8.16,0-11.28l36.32-36.32
		c1.51-1.497,3.554-2.332,5.68-2.32v-40.48l-81.84,66.72c9.84,19.84,36.48,79.04,20.24,110.08
		c-5.868,10.907-16.993,17.97-29.36,18.64c-49.2,5.52-69.52-39.52-75.28-71.12l-43.44,23.36l44.8,94.4h164.88v-112.96
		C226.077,200.628,224.032,199.764,222.535,198.237L222.535,198.237z"/>
</g>
<path style="fill:#FCB129;" d="M437.895,219.197l-43.36-23.36c-5.44,29.84-24,71.6-67.2,71.6c-2.673-0.013-5.344-0.174-8-0.48
	c-12.367-0.67-23.492-7.733-29.36-18.64c-16-30.96,10.4-90.24,20.24-110.08l-82-66.72v40.48c2.126-0.012,4.17,0.823,5.68,2.32
	l36.32,36.32c3.102,3.12,3.102,8.16,0,11.28l-36.32,36.32c-1.51,1.497-3.554,2.332-5.68,2.32v112.96h164.88L437.895,219.197z"/>
<g>
</g>
<g>
</g>
<g>
</g>
<g>
</g>
<g>
</g>
<g>
</g>
<g>
</g>
<g>
</g>
<g>
</g>
<g>
</g>
<g>
</g>
<g>
</g>
<g>
</g>
<g>
</g>
<g>
</g>
</svg>
