<?xml version="1.0" encoding="iso-8859-1"?>
<!-- Generator: Adobe Illustrator 19.0.0, SVG Export Plug-In . SVG Version: 6.00 Build 0)  -->
<svg version="1.1" id="Capa_1" xmlns="http://www.w3.org/2000/svg" xmlns:xlink="http://www.w3.org/1999/xlink" x="0px" y="0px"
	 viewBox="0 0 437.953 437.953" style="enable-background:new 0 0 437.953 437.953;" xml:space="preserve">
<path style="fill:#FED14F;" d="M399.515,208.977c-16.8,7.2-34.4,10.4-52,10.4c-1.6,0-3.2,0-4.8,0s-2.4,0-2.4,0
	c-10.4,0-20.8-4.8-27.2-13.6c-10.4-12.8-12.8-36-8-64l0.8-4.8l-87.2-65.6l-86.4,64.8l0.8,4.8c4.8,28,2.4,51.2-8,64
	c-6.4,8.8-16.8,13.6-27.2,13.6c-0.8,0-1.6,0-2.4,0c-1.6,0-3.2,0-4.8,0c-17.6,0-34.4-3.2-52-10.4l-22.4-8.8l12,20.8
	c13.6,22.4,22.4,47.2,27.2,72.8l0.8,6.4h162.4h162.4l0.8-6.4c4.8-25.6,13.6-49.6,27.2-72.8l12-20.8L399.515,208.977z"/>
<path style="fill:#FCB129;" d="M381.115,299.376l0.8-6.4c4.8-25.6,13.6-49.6,27.2-72.8l12-20.8l-22.4,8.8
	c-16.8,7.2-34.4,10.4-52,10.4c-1.6,0-3.2,0-4.8,0s-2.4,0-2.4,0c-10.4,0-20.8-4.8-27.2-13.6c-10.4-12.8-12.8-36-8-64l0.8-4.8
	l-86.4-64.8v228L381.115,299.376z"/>
<path style="fill:#FED14F;" d="M59.515,304.977h318.4v58.4h-318.4L59.515,304.977z"/>
<path style="fill:#FCB129;" d="M218.715,304.977h159.2v58.4h-159.2V304.977z"/>
<path style="fill:#DF2331;" d="M179.515,196.177l39.2-39.2l39.2,39.2l-39.2,39.2L179.515,196.177z"/>
<path d="M424.315,184.177c-22.4,19.2-52,28.8-81.6,28c-9.6,0.8-18.4-3.2-24-11.2c-12.8-16.8-8-50.4-5.6-62.4c0.8-3.2-0.8-6.4-3.2-8
	l-85.6-64c-1.6-1.6-3.2-2.4-5.6-2.4c-1.6,0-3.2,0.8-4.8,1.6l-86.4,64.8c-2.4,1.6-3.2,4.8-3.2,8c3.2,11.2,7.2,44.8-5.6,62.4
	c-5.6,7.2-14.4,11.2-24,11.2c-29.6,1.6-59.2-8-81.6-27.2c-3.2-3.2-8-2.4-11.2,0.8c-2.4,2.4-2.4,6.4-0.8,9.6
	c0.8,0.8,40,48,47.2,105.6v64.8c0,4.8,3.2,8,8,8h324.8c4.8,0,8-3.2,8-8v-64c7.2-57.6,46.4-105.6,47.2-105.6
	c2.4-3.2,2.4-8.8-1.6-11.2C431.515,180.977,427.515,180.977,424.315,184.177L424.315,184.177z M373.115,324.977h-78.4
	c-4.8,0-8,3.2-8,8s3.2,8,8,8h78.4v16.8h-308.8v-48.8h308.8V324.977z M373.915,292.177h-310.4c-4.8-26.4-14.4-52-28-75.2
	c19.2,8,39.2,12,60,11.2c14.4,0,27.2-5.6,36-16.8c16-21.6,12-56.8,9.6-70.4l77.6-58.4l77.6,58.4c-2.4,13.6-7.2,48.8,9.6,70.4
	c8.8,11.2,22.4,17.6,36,16.8c20.8,0.8,40.8-3.2,60-11.2C388.315,240.177,378.715,265.777,373.915,292.177L373.915,292.177z"/>
<path d="M224.315,147.377c-3.2-3.2-8-3.2-11.2,0l-43.2,43.2c-3.2,3.2-3.2,8,0,11.2l43.2,43.2c3.2,3.2,8,3.2,11.2,0l43.2-43.2
	c3.2-3.2,3.2-8,0-11.2L224.315,147.377z M218.715,227.376l-32-32l32-32l32,32L218.715,227.376z"/>
<path style="fill:#FCB129;" d="M401.915,216.977c-19.2,8-39.2,12-60,11.2c-14.4,0-27.2-5.6-36-16.8c-16-21.6-12-56.8-9.6-70.4
	l-77.6-59.2v63.2c2.4,0,4,0.8,5.6,2.4l43.2,43.2c3.2,3.2,3.2,8,0,11.2l-43.2,43.2c-1.6,1.6-3.2,2.4-5.6,2.4v44.8h155.2
	C378.715,265.776,388.315,240.176,401.915,216.977L401.915,216.977z"/>
<g>
</g>
<g>
</g>
<g>
</g>
<g>
</g>
<g>
</g>
<g>
</g>
<g>
</g>
<g>
</g>
<g>
</g>
<g>
</g>
<g>
</g>
<g>
</g>
<g>
</g>
<g>
</g>
<g>
</g>
</svg>
