<?xml version="1.0" encoding="iso-8859-1"?>
<!-- Generator: Adobe Illustrator 19.0.0, SVG Export Plug-In . SVG Version: 6.00 Build 0)  -->
<svg version="1.1" id="Capa_1" xmlns="http://www.w3.org/2000/svg" xmlns:xlink="http://www.w3.org/1999/xlink" x="0px" y="0px"
	 viewBox="0 0 424.168 424.168" style="enable-background:new 0 0 424.168 424.168;" xml:space="preserve">
<path style="fill:#FCB129;" d="M327.213,356.168h-115.2v56.8h115.2V356.168z"/>
<g>
	<path style="fill:#FED14F;" d="M212.013,356.168h-115.2v56.8h115.2V356.168z"/>
	<path style="fill:#FED14F;" d="M125.613,352.968c-64.8,0-116.8-52.8-116.8-116.8c0-64.8,52-116.8,116.8-116.8h56l-26.4,15.2
		c-19.2,10.4-34.4,26.4-44.8,44.8c-15.2,27.2-19.2,58.4-10.4,88.8c8.8,29.6,28,55.2,55.2,70.4l26.4,15.2h-56V352.968z"/>
</g>
<circle style="fill:#DF2331;" cx="212.013" cy="37.768" r="33.6"/>
<path style="fill:#FED14F;" d="M212.013,352.968c-64.8,0-116.8-52-116.8-116.8s52-117.6,116.8-117.6h8v234.4H212.013z"/>
<g>
	<path style="fill:#FCB129;" d="M212.013,118.568c64,0,116.8,52.8,116.8,117.6c0,64-52,116.8-116.8,116.8L212.013,118.568z"/>
	<path style="fill:#FCB129;" d="M242.413,352.168l26.4-15.2c19.2-10.4,34.4-26.4,44.8-44.8c31.2-56,11.2-127.2-44.8-158.4
		l-26.4-15.2h56c64.8,0,116.8,52,116.8,116.8c0,64-52,116.8-116.8,116.8H242.413z"/>
</g>
<path d="M298.413,110.568h-78.4v-36c20.8-4.8,33.6-24.8,28.8-44.8c-4-20-24-33.6-44.8-28.8s-33.6,24.8-28.8,44.8
	c3.2,14.4,14.4,25.6,28.8,28.8v36h-78.4c-68.8,0-124.8,56-124.8,124.8c0,55.2,36,103.2,88,119.2c-0.8,2.4-1.6,4.8-1.6,7.2v44.8
	c0.8,9.6,8.8,17.6,18.4,17.6h212.8c9.6,0,18.4-7.2,18.4-17.6v-44.8c0-2.4-0.8-4.8-1.6-7.2c65.6-20,103.2-90.4,82.4-156
	C402.413,146.568,353.613,110.568,298.413,110.568L298.413,110.568z M190.413,37.768c0-12,10.4-21.6,22.4-21.6s21.6,10.4,21.6,22.4
	s-9.6,21.6-21.6,21.6C200.013,60.168,190.413,50.568,190.413,37.768z M212.013,126.568c60,0,108.8,48.8,108.8,108.8
	s-48.8,108.8-108.8,108.8s-108.8-48.8-108.8-108.8C103.213,176.168,152.013,126.568,212.013,126.568L212.013,126.568z
	 M16.813,236.168c0-60,48.8-109.6,108.8-109.6h25.6c-60,33.6-81.6,109.6-48,169.6c11.2,20,28,36.8,48,48h-25.6
	C65.613,344.968,16.813,296.168,16.813,236.168z M105.613,407.368c-1.6,0-2.4-0.8-2.4-1.6v-44c0,0,0.8-1.6,2.4-1.6h7.2l27.2,47.2
	H105.613z M158.413,408.168l-27.2-47.2h32.8l27.2,47.2H158.413z M209.613,408.168l-27.2-47.2h32.8l27.2,47.2H209.613z
	 M260.813,408.168l-27.2-47.2h32.8l27.2,47.2H260.813z M318.413,408.168h-5.6l-27.2-47.2h33.6c1.6,0,2.4,0.8,2.4,1.6v44
	C321.613,406.568,321.613,408.168,318.413,408.168L318.413,408.168z M298.413,344.968h-25.6c60-33.6,81.6-109.6,48-169.6
	c-11.2-20-28-36.8-48-48h25.6c60,0,108.8,48.8,108.8,108.8S359.213,344.968,298.413,344.968z"/>
<g>
</g>
<g>
</g>
<g>
</g>
<g>
</g>
<g>
</g>
<g>
</g>
<g>
</g>
<g>
</g>
<g>
</g>
<g>
</g>
<g>
</g>
<g>
</g>
<g>
</g>
<g>
</g>
<g>
</g>
</svg>
