<?xml version="1.0" encoding="iso-8859-1"?>
<!-- Generator: Adobe Illustrator 19.0.0, SVG Export Plug-In . SVG Version: 6.00 Build 0)  -->
<svg version="1.1" id="Capa_1" xmlns="http://www.w3.org/2000/svg" xmlns:xlink="http://www.w3.org/1999/xlink" x="0px" y="0px"
	 viewBox="0 0 403.415 403.415" style="enable-background:new 0 0 403.415 403.415;" xml:space="preserve">
<path style="fill:#FED14F;" d="M158.505,283.563h-104.8v67.2h296v-67.2L158.505,283.563z"/>
<path style="fill:#FCB129;" d="M349.705,283.563h-52h-96v67.2h148V283.563z"/>
<path style="fill:#DF2331;" d="M201.705,221.163l32-40.8l-32-41.6l-32,41.6L201.705,221.163z"/>
<path style="fill:#FCB129;" d="M201.705,283.563v-61.6l32.8-42.4l-32.8-41.6v-84l7.2-0.8h9.6c24,0,67.2,5.6,94.4,44
	c14.4,20.8,5.6,55.2-2.4,85.6l-1.6,5.6c-1.6,5.6-3.2,11.2-4,16.8c-5.6,23.2-9.6,48-12,72l-0.8,7.2h-90.4V283.563z"/>
<path style="fill:#FED14F;" d="M111.305,283.563l-0.8-7.2c-2.4-24-6.4-48-12-72c-1.6-5.6-2.4-11.2-4-16.8l-1.6-5.6
	c-8.8-32-17.6-64.8-2.4-85.6c26.4-37.6,70.4-43.2,94.4-43.2h9.6l7.2,0.8v84l-32.8,42.4l32.8,42.4v61.6h-90.4L111.305,283.563z"/>
<path style="fill:#FCB129;" d="M292.105,283.563l0.8-8.8c2.4-23.2,6.4-47.2,12-70.4c1.6-7.2,4-14.4,5.6-22.4
	c8.8-32,17.6-64.8,2.4-85.6c-7.2-9.6-15.2-17.6-24.8-24.8l-22.4-14.4h57.6c12.8,0.8,24.8,3.2,36,8.8c23.2,9.6,37.6,33.6,36,58.4
	c0,18.4-10.4,44.8-20,70.4l-0.8,3.2c-3.2,8.8-6.4,17.6-9.6,25.6c-5.6,16.8-10.4,35.2-13.6,52.8l-1.6,6.4h-57.6V283.563z"/>
<path style="fill:#FED14F;" d="M53.705,283.563l-1.6-6.4c-3.2-17.6-8-35.2-13.6-52.8c-3.2-8.8-6.4-18.4-10.4-28l-0.8-0.8
	c-9.6-25.6-20-52-20-70.4c0-52.8,47.2-67.2,72-67.2h58.4l-22.4,14.4c-9.6,6.4-18.4,14.4-24.8,24c-14.4,20.8-5.6,53.6,2.4,84.8
	c2.4,8,4,15.2,5.6,22.4c5.6,23.2,8.8,47.2,12,70.4l0.8,8.8h-57.6L53.705,283.563z"/>
<path d="M362.505,58.763c-12.8-5.6-25.6-8.8-39.2-8.8h-67.2c-17.6-4.8-36-5.6-54.4-3.2c-18.4-2.4-36.8-0.8-54.4,3.2h-67.2
	c-13.6,0.8-27.2,3.2-39.2,8.8c-25.6,11.2-42.4,37.6-40.8,65.6c0,20,10.4,48,20.8,74.4c3.2,9.6,7.2,19.2,10.4,28
	c6.4,18.4,11.2,37.6,14.4,56.8v66.4c0,4.8,3.2,8,8,8h296c4.8,0,8-3.2,8-8v-66.4c3.2-19.2,8-38.4,14.4-56.8c3.2-8.8,6.4-18.4,10.4-28
	c10.4-26.4,20.8-54.4,20.8-74.4C404.905,96.363,388.905,69.963,362.505,58.763z M209.705,61.163c18.4-1.6,68-0.8,96.8,40
	c12.8,17.6,4,48.8-4,78.4c-2.4,8-4,15.2-5.6,22.4c-5.6,24-9.6,48-12,72.8h-75.2v-50.4l30.4-40c2.4-3.2,2.4-7.2,0-9.6l-30.4-40
	V61.163z M224.105,180.363l-22.4,28.8l-22.4-28.8l22.4-28.8L224.105,180.363z M193.705,61.163v73.6l-31.2,40c-2.4,3.2-2.4,7.2,0,9.6
	l31.2,40v50.4h-75.2c-2.4-24.8-6.4-48.8-12-72.8c-1.6-7.2-4-15.2-5.6-22.4c-8-30.4-16-60.8-4-78.4
	C125.705,61.163,175.305,60.363,193.705,61.163L193.705,61.163z M46.505,221.963c-3.2-8.8-7.2-18.4-10.4-28
	c-9.6-25.6-19.2-51.2-19.2-68.8c0-58.4,61.6-59.2,64-59.2h31.2c-10.4,7.2-20,16-27.2,26.4c-16.8,24-7.2,58.4,1.6,92
	c2.4,7.2,4,15.2,5.6,22.4c5.6,22.4,8.8,45.6,11.2,68.8h-42.4C56.905,257.163,52.105,239.563,46.505,221.963L46.505,221.963z
	 M341.705,342.763h-280v-51.2h280V342.763z M368.105,193.163c-4,9.6-7.2,19.2-10.4,28.8c-5.6,17.6-10.4,35.2-14.4,53.6h-42.4
	c2.4-23.2,6.4-46.4,11.2-68.8c1.6-7.2,4-14.4,5.6-22.4c8.8-33.6,18.4-68,1.6-92c-7.2-10.4-16.8-19.2-27.2-26.4h31.2
	c11.2,0.8,22.4,3.2,32.8,8c20,8.8,32.8,29.6,31.2,51.2C387.305,141.963,377.705,168.363,368.105,193.163L368.105,193.163z"/>
<g>
</g>
<g>
</g>
<g>
</g>
<g>
</g>
<g>
</g>
<g>
</g>
<g>
</g>
<g>
</g>
<g>
</g>
<g>
</g>
<g>
</g>
<g>
</g>
<g>
</g>
<g>
</g>
<g>
</g>
</svg>
