<?xml version="1.0" encoding="iso-8859-1"?>
<!-- Generator: Adobe Illustrator 19.0.0, SVG Export Plug-In . SVG Version: 6.00 Build 0)  -->
<svg version="1.1" id="Capa_1" xmlns="http://www.w3.org/2000/svg" xmlns:xlink="http://www.w3.org/1999/xlink" x="0px" y="0px"
	 viewBox="0 0 484.501 484.501" style="enable-background:new 0 0 484.501 484.501;" xml:space="preserve">
<path style="fill:#FCB129;" d="M241.6,355.551H404v64.8H241.6V355.551z"/>
<g>
	<path style="fill:#FED14F;" d="M77.6,418.751h164v-63.2h-164V418.751z"/>
	<path style="fill:#FED14F;" d="M77.6,355.551l-8.8-26.4l6.4-3.2c16.8-8.8,25.6-26.4,22.4-44.8c-4-20-20.8-34.4-41.6-34.4
		c-2.4,0-4.8,0-8,0.8l-6.4,1.6l-35.2-102.4l11.2,0.8c24.8,0.8,48.8,7.2,71.2,17.6l8,4l-4,7.2c-4,7.2-6.4,15.2-6.4,23.2
		c0,16,7.2,30.4,20,40c8,5.6,17.6,8.8,28,8.8c15.2,0,30.4-7.2,39.2-20c7.2-10.4,10.4-23.2,8-36s-8.8-24-19.2-31.2l-6.4-4.8l4.8-6.4
		c21.6-30.4,47.2-58.4,76-82.4l4.8-4l4.8,4c28.8,24,54.4,52,76,82.4l4.8,6.4l-6.4,4.8c-12.8,8.8-20,24-20,39.2
		c0,26.4,21.6,47.2,48,47.2c27.2,0,48-22.4,48-48.8c0-8-2.4-16-6.4-23.2l-4-7.2l8-4c22.4-11.2,46.4-16.8,71.2-18.4l12-0.8
		l-35.2,100.8l-6.4-1.6c-2.4-0.8-4.8-0.8-7.2-0.8c-16,0-30.4,8.8-37.6,23.2c-10.4,20.8-2.4,46.4,18.4,56.8l6.4,3.2l-8.8,26.4H249.6
		h-8h-164L77.6,355.551z M241.6,246.751c-23.2,0-42.4,19.2-42.4,42.4c0,22.4,16.8,40.8,38.4,42.4h4c23.2,0,42.4-19.2,42.4-42.4
		C284,265.151,264.8,246.751,241.6,246.751z"/>
</g>
<path style="fill:#FCB129;" d="M394.4,165.951l-8,4l4,7.2c4,7.2,6.4,15.2,6.4,23.2c0,26.4-20.8,48-48,48.8c-26.4,0-48-21.6-48-47.2
	c0-16,7.2-30.4,20-39.2l6.4-4.8l-4.8-6.4c-21.6-31.2-47.2-58.4-76-82.4l-4.8-5.6v183.2c23.2,0,42.4,19.2,42.4,42.4
	s-19.2,42.4-42.4,42.4v24h8h156l8.8-26.4l-6.4-3.2c-20.8-10.4-28.8-36-18.4-56.8c7.2-14.4,21.6-23.2,37.6-23.2c2.4,0,4.8,0,7.2,0.8
	l6.4,1.6l35.2-100.8h-10.4C440,148.351,416.8,154.751,394.4,165.951L394.4,165.951z"/>
<g>
	<path style="fill:#63CDF8;" d="M95.2,289.151c0-23.2-20-42.4-44-42.4h-4.8l0.8,2.4l21.6,80C81.6,321.151,95.2,303.551,95.2,289.151
		z"/>
	<path style="fill:#63CDF8;" d="M384.8,289.151c0,16,12.8,31.2,27.2,40l16.8-57.6l10.4-27.2h-4.8
		C407.2,244.351,385.6,264.351,384.8,289.151L384.8,289.151z"/>
	<circle style="fill:#63CDF8;" cx="241.6" cy="288.351" r="41.6"/>
</g>
<path d="M476.8,138.751c-32.8,0-65.6,8-94.4,24c-4,2.4-5.6,7.2-3.2,11.2l0.8,0.8c5.6,7.2,8.8,16,8.8,24.8c0,22.4-17.6,40-39.2,40.8
	c-22.4,0-40-17.6-40.8-39.2c0-15.2,8.8-29.6,22.4-36.8c4-2.4,5.6-7.2,3.2-10.4v-0.8c-24-36-53.6-68-87.2-95.2
	c-3.2-2.4-6.4-2.4-9.6,0c-34.4,27.2-63.2,59.2-87.2,95.2c-2.4,4-1.6,8.8,2.4,11.2h0.8c20,9.6,28,33.6,17.6,53.6s-33.6,28-53.6,17.6
	s-28-33.6-17.6-53.6c1.6-2.4,3.2-4.8,4.8-7.2c2.4-3.2,2.4-8.8-1.6-11.2l-0.8-0.8c-28.8-16-61.6-24-94.4-24c-4.8,0-8,3.2-8,8
	c0,0.8,0,1.6,0.8,2.4l32.8,102.4l8,24l28,81.6v63.2c0,4.8,3.2,8,8,8h328c4.8,0,8-3.2,8-8v-64l8.8-24.8l18.4-55.2l43.2-126.4
	c1.6-4-0.8-8.8-4.8-10.4C477.6,139.551,476.8,138.751,476.8,138.751L476.8,138.751z M72.8,317.951l-20.8-61.6l-0.8-1.6h3.2
	c19.2,0,34.4,15.2,34.4,34.4C89.6,301.151,83.2,311.551,72.8,317.951L72.8,317.951z M397.6,412.351h-312v-18.4h87.2c4.8,0,8-3.2,8-8
	s-3.2-8-8-8H85.6v-14.4h312V412.351z M424.8,275.551l-14.4,42.4c-16-10.4-20.8-31.2-11.2-47.2c6.4-9.6,16.8-16,28.8-16h3.2
	L424.8,275.551z M436.8,239.551c-27.2-4.8-53.6,12.8-58.4,40c-4,21.6,6.4,43.2,26.4,53.6l-4.8,14.4H83.2l-4.8-14.4
	c24.8-12.8,34.4-43.2,21.6-67.2c-10.4-20-32-30.4-53.6-26.4l-28.8-84c23.2,0.8,46.4,7.2,68,16.8c-4.8,8-7.2,17.6-7.2,27.2
	c0,31.2,24,56,55.2,56.8c31.2,0,56-24,56.8-55.2c0-18.4-8.8-35.2-23.2-46.4c20.8-30.4,46.4-57.6,74.4-80.8
	c28,23.2,53.6,50.4,74.4,80.8c-24.8,18.4-30.4,52.8-12.8,78.4c18.4,24.8,52.8,30.4,78.4,12.8c14.4-10.4,23.2-28,23.2-46.4
	c0-9.6-2.4-18.4-7.2-27.2c21.6-10.4,44-16,68-16.8L436.8,239.551z"/>
<path d="M241.6,238.751c-28,0-50.4,22.4-50.4,50.4s22.4,50.4,50.4,50.4s50.4-22.4,50.4-50.4S269.6,238.751,241.6,238.751
	L241.6,238.751z M241.6,322.751c-19.2,0-34.4-15.2-34.4-34.4s15.2-34.4,34.4-34.4s34.4,15.2,34.4,34.4S260.8,322.751,241.6,322.751z
	"/>
<g>
</g>
<g>
</g>
<g>
</g>
<g>
</g>
<g>
</g>
<g>
</g>
<g>
</g>
<g>
</g>
<g>
</g>
<g>
</g>
<g>
</g>
<g>
</g>
<g>
</g>
<g>
</g>
<g>
</g>
</svg>
