<?xml version="1.0" encoding="iso-8859-1"?>
<!-- Generator: Adobe Illustrator 19.0.0, SVG Export Plug-In . SVG Version: 6.00 Build 0)  -->
<svg version="1.1" id="Capa_1" xmlns="http://www.w3.org/2000/svg" xmlns:xlink="http://www.w3.org/1999/xlink" x="0px" y="0px"
	 viewBox="0 0 483.2 483.2" style="enable-background:new 0 0 483.2 483.2;" xml:space="preserve">
<path style="fill:#FED14F;" d="M53.6,332.698H36.8c0,0-0.8,0-0.8,0.8v74.4c0,0.8,0,0.8,0.8,0.8h205.6v-76L53.6,332.698z"/>
<path style="fill:#FCB129;" d="M448,332.698H242.4v76H448c0,0,0.8,0,0.8-0.8L448,332.698z"/>
<path style="fill:#FED14F;" d="M242.4,86.298l-66.4,82.4l27.2,156h39.2h39.2l27.2-156L242.4,86.298z"/>
<path style="fill:#FCB129;" d="M308.8,168.698l-66.4-82.4v238.4h39.2L308.8,168.698z"/>
<circle style="fill:#63CDF8;" cx="187.2" cy="371.098" r="8"/>
<path style="fill:#FED14F;" d="M123.2,332.698l-48.8-131.2l16.8-78.4l76.8,43.2l28.8,166.4H123.2z"/>
<g>
	<circle style="fill:#63CDF8;" cx="76" cy="371.098" r="8"/>
	<circle style="fill:#63CDF8;" cx="242.4" cy="194.298" r="16.8"/>
</g>
<path style="fill:#FED14F;" d="M62.4,332.698l-52.8-88v-77.6l64.8,34.4l48.8,131.2H62.4z"/>
<circle style="fill:#63CDF8;" cx="408.8" cy="371.098" r="8"/>
<path style="fill:#FCB129;" d="M361.6,332.698l48.8-131.2l64.8-34.4v77.6l-52.8,88H361.6z"/>
<circle style="fill:#63CDF8;" cx="297.6" cy="371.098" r="8"/>
<path style="fill:#FCB129;" d="M288.8,332.698l28.8-166.4l76-43.2l16.8,79.2l-48.8,130.4H288.8z"/>
<path d="M479.2,159.898c-2.4-1.6-5.6-1.6-8,0l-55.2,29.6l-14.4-68c-0.8-4-4.8-7.2-9.6-6.4c-0.8,0-1.6,0.8-2.4,0.8l-71.2,40
	l-70.4-87.2c-2.4-3.2-8-4-11.2-1.6c-0.8,0-0.8,0.8-1.6,1.6l-70.4,87.2l-71.2-40c-4-2.4-8.8-0.8-11.2,3.2c-0.8,0.8-0.8,1.6-0.8,2.4
	l-14.4,68l-55.2-29.6c-4-2.4-8.8-0.8-11.2,3.2c-0.8,0.8-0.8,2.4-0.8,4v77.6c0,1.6,0,3.2,0.8,4l45.6,76c-8.8,0-16.8,7.2-16.8,16.8
	v59.2c0,8.8,8,16.8,16.8,16.8h392c8.8,0,16.8-7.2,16.8-16.8v-59.2c0-8.8-7.2-16.8-16.8-16.8h-1.6l45.6-76c0.8-1.6,0.8-2.4,0.8-4
	v-77.6C483.2,163.898,481.6,161.498,479.2,159.898L479.2,159.898z M324.8,171.098l64-36l13.6,66.4l-46.4,123.2h-57.6L324.8,171.098z
	 M242.4,86.298l66.4,82.4l-27.2,156h-78.4l-27.2-156L242.4,86.298z M96.8,135.898l64,36l26.4,153.6h-58.4l-46.4-124.8L96.8,135.898z
	 M17.6,242.298v-61.6l50.4,27.2l44,117.6H66.4L17.6,242.298z M438.4,340.698C438.4,340.698,439.2,341.498,438.4,340.698l0.8,59.2
	c0,0,0,0.8-0.8,0.8h-392c0,0-0.8,0-0.8-0.8v-59.2c0,0,0-0.8,0.8-0.8L438.4,340.698z M467.2,242.298l-48.8,82.4h-44.8l44-118.4
	l49.6-26.4L467.2,242.298z"/>
<path d="M242.4,226.298c17.6,0,32.8-14.4,32.8-32.8s-15.2-32-32.8-32s-32.8,14.4-32.8,32.8
	C209.6,211.898,224.8,226.298,242.4,226.298L242.4,226.298z M242.4,177.498c8.8,0,16.8,7.2,16.8,16.8s-7.2,16.8-16.8,16.8
	s-16.8-7.2-16.8-16.8S233.6,177.498,242.4,177.498L242.4,177.498z"/>
<path d="M76,347.098c-13.6,0-24,10.4-24,24s10.4,24,24,24s24-10.4,24-24S88.8,347.098,76,347.098z M76,379.098c-4.8,0-8-3.2-8-8
	s3.2-8,8-8s8,3.2,8,8S80,379.098,76,379.098z"/>
<path d="M187.2,347.098c-13.6,0-24,10.4-24,24s10.4,24,24,24s24-10.4,24-24S200,347.098,187.2,347.098z M187.2,379.098
	c-4.8,0-8-3.2-8-8s3.2-8,8-8s8,3.2,8,8S191.2,379.098,187.2,379.098z"/>
<path d="M297.6,347.098c-13.6,0-24,10.4-24,24s10.4,24,24,24s24-10.4,24-24S311.2,347.098,297.6,347.098z M297.6,379.098
	c-4.8,0-8-3.2-8-8s3.2-8,8-8s8,3.2,8,8S302.4,379.098,297.6,379.098z"/>
<path d="M384.8,371.098c0,13.6,10.4,24,24,24s24-10.4,24-24s-10.4-24-24-24S384.8,357.498,384.8,371.098z M417.6,371.098
	c0,4.8-3.2,8-8,8s-8-3.2-8-8s3.2-8,8-8C413.6,363.098,417.6,366.298,417.6,371.098z"/>
<g>
</g>
<g>
</g>
<g>
</g>
<g>
</g>
<g>
</g>
<g>
</g>
<g>
</g>
<g>
</g>
<g>
</g>
<g>
</g>
<g>
</g>
<g>
</g>
<g>
</g>
<g>
</g>
<g>
</g>
</svg>
