<?xml version="1.0" encoding="iso-8859-1"?>
<!-- Generator: Adobe Illustrator 19.0.0, SVG Export Plug-In . SVG Version: 6.00 Build 0)  -->
<svg version="1.1" id="Capa_1" xmlns="http://www.w3.org/2000/svg" xmlns:xlink="http://www.w3.org/1999/xlink" x="0px" y="0px"
	 viewBox="0 0 468.204 468.204" style="enable-background:new 0 0 468.204 468.204;" xml:space="preserve">
<path style="fill:#FED14F;" d="M460.8,313.702v-84l-48.8-23.2l3.2,16l5.6,29.6h-51.2l4-54.4l-51.2-20.8l9.6,75.2h-61.6l13.6-84.8
	l-41.6-20v-8l-8,4l-8-4v8l-41.6,20l12.8,84.8H136l9.6-75.2l-51.2,20.8l4,54.4H47.2l9.6-45.6L8,229.702v84v48.8v48.8h234.4h218.4
	v-48.8V313.702z M102.4,387.302l-24.8-24.8l24.8-24.8l24.8,24.8L102.4,387.302z M230.4,386.502l-5.6-4.8l-19.2-19.2l24.8-24.8h0.8
	l24,24L230.4,386.502z M358.4,387.302l-24.8-24.8l24.8-24.8l24.8,24.8L358.4,387.302z"/>
<path style="fill:#FCB129;" d="M415.2,222.502l5.6,29.6h-51.2l4-54.4l-51.2-20.8l9.6,75.2h-61.6l13.6-84.8l-41.6-20v-8l-8,4l-4-1.6
	v196h0.8l24,24l-24,24v24h11.2h218.4v-48.8v-47.2v-84l-48.8-23.2L415.2,222.502z M358.4,387.302l-24.8-24.8l24.8-24.8l24.8,24.8
	L358.4,387.302z"/>
<g>
	<path style="fill:#DF2331;" d="M206.272,361.979l24.328-24.321l24.321,24.328l-24.328,24.321L206.272,361.979z"/>
	<path style="fill:#DF2331;" d="M194.937,99.953l39.598-39.598l39.598,39.598l-39.598,39.598L194.937,99.953z"/>
	<path style="fill:#DF2331;" d="M79.943,362.401l22.63-22.624l22.624,22.63l-22.63,22.624L79.943,362.401z"/>
	<path style="fill:#DF2331;" d="M330.346,362.536l28.288-28.28l28.28,28.288l-28.288,28.28L330.346,362.536z"/>
</g>
<path d="M464,222.502l-48.8-23.2c-4-1.6-8.8,0-10.4,4c-0.8,1.6-0.8,3.2-0.8,4.8l7.2,36h-32.8l3.2-45.6c0-3.2-1.6-6.4-4.8-8
	l-51.2-20.8c-4-1.6-8.8,0-10.4,4.8c-0.8,0.8-0.8,1.6-0.8,3.2l8.8,66.4H280l12-75.2c0.8-3.2-1.6-7.2-4.8-8.8l-39.2-19.2l35.2-35.2
	c3.2-3.2,3.2-8,0-11.2l-43.2-43.2c-3.2-3.2-8-3.2-11.2,0l-43.2,43.2c-3.2,3.2-3.2,8,0,11.2l35.2,35.2l-40,19.2
	c-3.2,1.6-4.8,4.8-4.8,8.8l12,75.2h-43.2l9.6-66.4c0.8-4-2.4-8.8-7.2-8.8c-1.6,0-3.2,0-4,0.8l-51.2,20.8c-3.2,1.6-5.6,4.8-4.8,8
	l3.2,45.6H57.6l7.2-36c0.8-4-1.6-8.8-6.4-9.6c-1.6,0-3.2,0-4.8,0.8l-48.8,23.2c-2.4,1.6-4.8,4-4.8,7.2v181.6c0,4.8,3.2,8,8,8h452
	c4.8,0,8-3.2,8-8v-181.6C468.8,226.502,467.2,223.302,464,222.502L464,222.502z M202.4,100.102l32-32l32,32l-32,32L202.4,100.102z
	 M452.8,403.302H16v-32.8h58.4l22.4,22.4c3.2,3.2,8,3.2,11.2,0l22.4-22.4h72l22.4,22.4c3.2,3.2,8,3.2,11.2,0l22.4-22.4h72l22.4,22.4
	c3.2,3.2,8,3.2,11.2,0l22.4-22.4H452L452.8,403.302z M88.8,362.502l13.6-13.6l13.6,13.6l-13.6,13.6L88.8,362.502z M216.8,362.502
	l13.6-13.6l13.6,13.6l-13.6,13.6L216.8,362.502z M344.8,362.502l13.6-13.6l13.6,13.6l-13.6,13.6L344.8,362.502z M452.8,354.502
	h-66.4l-22.4-22.4c-3.2-3.2-8-3.2-11.2,0l-22.4,22.4h-72l-22.4-22.4c-3.2-3.2-8-3.2-11.2,0l-22.4,22.4h-72l-22.4-22.4
	c-3.2-3.2-8-3.2-11.2,0l-22.4,22.4H16v-32.8h436v32.8H452.8z M452.8,305.702H16v-71.2l29.6-14.4l-5.6,29.6c-0.8,4,1.6,8.8,6.4,9.6
	H48h51.2c4.8,0,8-3.2,8-8c0,0,0,0,0-0.8l-3.2-48l33.6-13.6l-8,61.6c-0.8,4,2.4,8,7.2,8.8h0.8h61.6c4.8,0,8-3.2,8-8
	c0-0.8,0-0.8,0-1.6l-12-78.4l40.8-19.2l40.8,20l-12,78.4c-0.8,4,2.4,8.8,6.4,8.8h1.6h61.6c4.8,0,8-3.2,8-8v-0.8l-8-61.6l33.6,13.6
	l-5.6,48.8c0,4.8,3.2,8,7.2,8.8h0.8h51.2c4.8,0,8-3.2,8-8c0-0.8,0-0.8,0-1.6l-6.4-29.6l29.6,14.4L452.8,305.702z"/>
<g>
</g>
<g>
</g>
<g>
</g>
<g>
</g>
<g>
</g>
<g>
</g>
<g>
</g>
<g>
</g>
<g>
</g>
<g>
</g>
<g>
</g>
<g>
</g>
<g>
</g>
<g>
</g>
<g>
</g>
</svg>
