<?xml version="1.0" encoding="iso-8859-1"?>
<!-- Generator: Adobe Illustrator 19.0.0, SVG Export Plug-In . SVG Version: 6.00 Build 0)  -->
<svg version="1.1" id="Capa_1" xmlns="http://www.w3.org/2000/svg" xmlns:xlink="http://www.w3.org/1999/xlink" x="0px" y="0px"
	 viewBox="0 0 414.4 414.4" style="enable-background:new 0 0 414.4 414.4;" xml:space="preserve">
<path style="fill:#FCB129;" d="M207.2,278.619h202.4v70.4H207.2V278.619z"/>
<g>
	<path style="fill:#FED14F;" d="M5.6,278.619H208v70.4H5.6L5.6,278.619z"/>
	<path style="fill:#FED14F;" d="M350.4,133.019l-47.2-45.6l-42.4,40l-44.8-54.4l-8.8-9.6l-8,9.6l-45.6,54.4l-0.8,0.8l0.8-0.8
		l-42.4-40l-48,45.6v0.8L8,82.619l5.6,135.2l0.8,0.8l2.4,57.6h380l3.2-57.6v-0.8l5.6-134.4L350.4,133.019z"/>
</g>
<path style="fill:#FCB129;" d="M350.4,133.019l-47.2-45.6l-42.4,40l-44.8-54.4l-8.8-9.6v212.8h189.6l3.2-57.6v-0.8l5.6-134.4
	L350.4,133.019z"/>
<path d="M406.4,270.619l8-187.2c0-4.8-3.2-8-8-8c-2.4,0-4,0.8-5.6,2.4l-49.6,44.8l-42.4-40.8c-3.2-3.2-8-3.2-11.2,0l-36,34.4
	l-48-58.4c-3.2-3.2-8-4-11.2-0.8l-0.8,0.8l-48,58.4l-36-34.4c-3.2-3.2-8-3.2-11.2,0l-43.2,40l-49.6-45.6c-3.2-3.2-8-2.4-11.2,0.8
	c-1.6,1.6-2.4,3.2-2.4,5.6l8,187.2c-4.8,3.2-8,8-8,13.6v60c0,8.8,7.2,16,16,16h382.4c8.8,0,16-7.2,16-16v-59.2
	C414.4,278.619,411.2,273.019,406.4,270.619z M303.2,98.619l36,34.4l-36,32.8l-32-37.6L303.2,98.619z M111.2,98.619l32,29.6
	l-32,37.6l-36-32.8L111.2,98.619z M58.4,138.619l48.8,44.8c0.8,0.8,1.6,1.6,2.4,1.6h0.8h1.6h0.8c2.4,0,4-0.8,5.6-3.2l41.6-50.4
	l47.2-56.8l47.2,56.8l40.8,50.4c1.6,1.6,3.2,2.4,5.6,3.2h0.8c1.6,0,4-0.8,5.6-2.4l90.4-82.4l-4.8,112.8l-41.6,50.4l-41.6-56.8
	c-1.6-1.6-4-3.2-6.4-3.2s-4.8,0.8-6.4,3.2l-48,56.8l-36-56c0-0.8-0.8-0.8-0.8-0.8c0-0.8-0.8-0.8-1.6-0.8h-0.8
	c-0.8,0-0.8-0.8-1.6-0.8s-2.4,0-3.2,0s-0.8,0-1.6,0.8h-0.8c-0.8,0-0.8,0.8-0.8,0.8l-0.8,0.8l-36,56l-48-56.8c-1.6-1.6-4-3.2-6.4-3.2
	s-4.8,1.6-6.4,3.2l-40.8,56.8l-41.6-48.8l-4.8-112.8L58.4,138.619z M392,240.219l-0.8,27.2h-22.4L392,240.219z M336,268.219h-69.6
	l36.8-44L336,268.219z M235.2,268.219H180l27.2-42.4L235.2,268.219z M148.8,268.219H79.2l32-44L148.8,268.219z M46.4,268.219H24
	l-0.8-27.2L46.4,268.219z M16,343.419v-59.2h382.4v59.2H16z"/>
<g>
</g>
<g>
</g>
<g>
</g>
<g>
</g>
<g>
</g>
<g>
</g>
<g>
</g>
<g>
</g>
<g>
</g>
<g>
</g>
<g>
</g>
<g>
</g>
<g>
</g>
<g>
</g>
<g>
</g>
</svg>
