<?xml version="1.0" encoding="iso-8859-1"?>
<!-- Generator: Adobe Illustrator 19.0.0, SVG Export Plug-In . SVG Version: 6.00 Build 0)  -->
<svg version="1.1" id="Capa_1" xmlns="http://www.w3.org/2000/svg" xmlns:xlink="http://www.w3.org/1999/xlink" x="0px" y="0px"
	 viewBox="0 0 417.116 417.116" style="enable-background:new 0 0 417.116 417.116;" xml:space="preserve">
<path style="fill:#FED14F;" d="M38.787,189.511l83.2,36.8l94.4-120.8v180.8h-8c-42.4,0-124,5.6-157.6,24.8l-12,7.2L38.787,189.511z"
	/>
<path style="fill:#FCB129;" d="M365.987,311.111c-33.6-19.2-114.4-24.8-157.6-24.8v-180.8l86.4,120.8l83.2-36.8v128.8
	L365.987,311.111z"/>
<g>
	<circle style="fill:#DF2331;" cx="208.387" cy="83.911" r="29.6"/>
	<circle style="fill:#DF2331;" cx="38.787" cy="156.711" r="34.4"/>
</g>
<path style="fill:#E38C16;" d="M208.387,281.511c-109.6,0-170.4,28.8-170.4,44s60.8,43.2,170.4,43.2s170.4-28.8,170.4-44
	S317.987,281.511,208.387,281.511z"/>
<circle style="fill:#DF2331;" cx="377.987" cy="156.711" r="28"/>
<path d="M377.987,117.511c-21.6,0-39.2,17.6-39.2,39.2c0,13.6,7.2,26.4,18.4,33.6l-60,26.4l-74.4-96c20-8,30.4-30.4,22.4-51.2
	c-8-20-30.4-30.4-51.2-22.4s-30.4,30.4-22.4,51.2c4,10.4,12,18.4,22.4,22.4l-74.4,96l-59.2-26.4c18.4-12,23.2-36,12-54.4
	s-36-23.2-54.4-12c-18.4,12-23.2,36-12,54.4c5.6,8.8,14.4,15.2,24.8,17.6v129.6c0,37.6,116,47.2,177.6,47.2s177.6-9.6,177.6-47.2
	v-130.4c21.6-4.8,34.4-25.6,30.4-46.4C412.387,130.311,396.387,117.511,377.987,117.511L377.987,117.511z M185.187,83.911
	c0-12.8,10.4-23.2,23.2-23.2c12.8,0,23.2,10.4,23.2,23.2s-10.4,23.2-23.2,23.2C195.587,107.111,185.187,96.711,185.187,83.911z
	 M15.587,156.711c0-12.8,10.4-23.2,23.2-23.2s23.2,10.4,23.2,23.2s-10.4,23.2-23.2,23.2S15.587,169.511,15.587,156.711z
	 M208.387,356.711c-104,0-161.6-20.8-161.6-31.2s57.6-31.2,161.6-31.2s161.6,20.8,161.6,31.2S312.387,356.711,208.387,356.711z
	 M369.987,303.911c-33.6-20-113.6-25.6-161.6-25.6s-127.2,5.6-161.6,25.6v-102.4l72,32c3.2,1.6,7.2,0.8,9.6-2.4l80-102.4l80,102.4
	c2.4,3.2,6.4,4,9.6,2.4l72-32V303.911z M377.987,179.911c-12.8,0-23.2-10.4-23.2-23.2s10.4-23.2,23.2-23.2s23.2,10.4,23.2,23.2
	S390.787,179.911,377.987,179.911z"/>
<g>
</g>
<g>
</g>
<g>
</g>
<g>
</g>
<g>
</g>
<g>
</g>
<g>
</g>
<g>
</g>
<g>
</g>
<g>
</g>
<g>
</g>
<g>
</g>
<g>
</g>
<g>
</g>
<g>
</g>
</svg>
