<?xml version="1.0" encoding="iso-8859-1"?>
<!-- Generator: Adobe Illustrator 19.0.0, SVG Export Plug-In . SVG Version: 6.00 Build 0)  -->
<svg version="1.1" id="Capa_1" xmlns="http://www.w3.org/2000/svg" xmlns:xlink="http://www.w3.org/1999/xlink" x="0px" y="0px"
	 viewBox="0 0 496.8 496.8" style="enable-background:new 0 0 496.8 496.8;" xml:space="preserve">
<path style="fill:#FCB129;" d="M354.4,213.215c-27.2-28-63.2-44-102.4-45.6v136C276,262.815,312,231.615,354.4,213.215z"/>
<path style="fill:#FED14F;" d="M249.6,167.615c-39.2,0-76.8,16.8-104.8,45.6c44,20,81.6,54.4,104.8,98.4c0.8-1.6,2.4-4,3.2-6.4
	v-136.8L249.6,167.615z"/>
<path style="fill:#FCB129;" d="M248.8,318.815l5.6-11.2c16-32,68-107.2,216.8-110.4h20l-14.4,14.4c-32,32-69.6,75.2-78.4,102.4
	l-1.6,5.6h-148L248.8,318.815z"/>
<path style="fill:#FED14F;" d="M106.4,322.015h288.8v63.2H106.4L106.4,322.015z"/>
<path style="fill:#FCB129;" d="M252.8,322.015h142.4v63.2H252.8V322.015z"/>
<path style="fill:#FED14F;" d="M103.2,318.815l-1.6-5.6c-10.4-32-58.4-82.4-78.4-102.4l-13.6-13.6h19.2c38.4,0,76,6.4,112,20h0.8
	h0.8h0.8h0.8c64.8,25.6,92.8,67.2,103.2,90.4l5.6,11.2H103.2z"/>
<circle style="fill:#63CDF8;" cx="252.8" cy="138.015" r="24"/>
<g>
	<path style="fill:#FED14F;" d="M111.2,378.015h47.2l-47.2-41.6L111.2,378.015z"/>
	<path style="fill:#FED14F;" d="M124.8,326.815l58.4,51.2h55.2l-58.4-51.2H124.8z"/>
</g>
<path d="M491.2,188.415c-44-1.6-88,4.8-130.4,19.2c-21.6-23.2-49.6-40-80.8-46.4c5.6-6.4,8.8-15.2,8.8-23.2
	c-0.8-20-17.6-35.2-37.6-34.4c-18.4,0.8-33.6,16-34.4,34.4c0,8,3.2,16,8,22.4c-32.8,5.6-63.2,22.4-86.4,47.2
	c-41.6-14.4-85.6-20.8-130.4-19.2c-4.8,0-8,4-8,8c0,2.4,0.8,4,2.4,5.6c24,22.4,86.4,87.2,91.2,117.6c0,0.8,0.8,1.6,0.8,2.4v63.2
	c0,4.8,3.2,8,8,8h292c4.8,0,8-3.2,8-8v-63.2c0-0.8,0.8-1.6,0.8-2.4c5.6-30.4,68-95.2,91.2-117.6c3.2-3.2,3.2-8,0-11.2
	C495.2,190.015,492.8,188.415,491.2,188.415L491.2,188.415z M252.8,117.215c11.2,0,20,8.8,20,20s-8.8,20-20,20s-20-8.8-20-20
	S241.6,117.215,252.8,117.215z M249.6,174.015c36,0,69.6,14.4,95.2,40c-40,16.8-73.6,46.4-95.2,84.8c-20.8-38.4-54.4-68-95.2-84.8
	C180,188.415,213.6,174.015,249.6,174.015z M28,204.415c36.8,0,74.4,6.4,108.8,19.2c0.8,0,0.8,0.8,1.6,0.8
	c64,24.8,89.6,66.4,99.2,86.4H108.8C98.4,278.015,52,229.215,28,204.415L28,204.415z M111.2,378.015v-41.6l47.2,41.6H111.2z
	 M183.2,378.015l-58.4-51.2H180l58.4,51.2H183.2z M263.2,378.015l-58.4-51.2H260l58.4,51.2H263.2z M388.8,378.015h-46.4l-58.4-51.2
	h55.2l48.8,42.4L388.8,378.015z M388.8,347.615l-24-20.8h24V347.615z M391.2,310.815H261.6c13.6-28,64-103.2,209.6-106.4
	C447.2,229.215,400.8,278.015,391.2,310.815z"/>
<path style="fill:#FED14F;" d="M249.6,326.815H204l48.8,42.4v-42.4H249.6z"/>
<g>
</g>
<g>
</g>
<g>
</g>
<g>
</g>
<g>
</g>
<g>
</g>
<g>
</g>
<g>
</g>
<g>
</g>
<g>
</g>
<g>
</g>
<g>
</g>
<g>
</g>
<g>
</g>
<g>
</g>
</svg>
